<svg width="200" height="120" viewBox="0 0 200 120" fill="none" xmlns="http://www.w3.org/2000/svg">
<path d="M32.5 19.5L24.5 21.5L27 27.5L32.5 26.5V19.5Z" fill="black" stroke="black"/>
<path d="M35 25V18.5H41.5V25H35Z" fill="black" stroke="black"/>
<path d="M44.5 35V18H51V35H44.5Z" fill="black" stroke="black"/>
<path d="M53.5 35.5V18.5L59.5 21.5L59 37L53.5 35.5Z" fill="black" stroke="black"/>
<path d="M31.5 69.5V52L25.5 50L22.5 44.5L21 31.5L42 27V35L30 37V39.5L44 37L59 39.5L56.5 52L52 61H66.5L43 102.5V69.5H31.5Z" fill="black" stroke="black"/>
<path d="M124.92 19.3636H127.727V26.8693C127.727 27.7367 127.521 28.4924 127.108 29.1364C126.695 29.7765 126.119 30.2727 125.381 30.625C124.642 30.9735 123.784 31.1477 122.807 31.1477C121.818 31.1477 120.955 30.9735 120.216 30.625C119.477 30.2727 118.903 29.7765 118.494 29.1364C118.085 28.4924 117.881 27.7367 117.881 26.8693V19.3636H120.693V26.625C120.693 27.0265 120.78 27.3845 120.955 27.6989C121.133 28.0133 121.381 28.2595 121.699 28.4375C122.017 28.6155 122.386 28.7045 122.807 28.7045C123.227 28.7045 123.595 28.6155 123.909 28.4375C124.227 28.2595 124.475 28.0133 124.653 27.6989C124.831 27.3845 124.92 27.0265 124.92 26.625V19.3636ZM139.393 19.3636V31H137.007L132.376 24.2841H132.303V31H129.49V19.3636H131.911L136.49 26.0682H136.587V19.3636H139.393ZM141.162 31V19.3636H149.276V21.6477H143.974V24.0341H148.861V26.3239H143.974V28.7159H149.276V31H141.162Z" fill="black"/>
<path d="M95.0376 45.8182V56H92.8849V45.8182H95.0376ZM102.332 48.7464C102.292 48.3454 102.122 48.0339 101.82 47.8118C101.519 47.5897 101.109 47.4787 100.592 47.4787C100.241 47.4787 99.9442 47.5284 99.7022 47.6278C99.4603 47.724 99.2747 47.8582 99.1454 48.0305C99.0195 48.2029 98.9565 48.3984 98.9565 48.6172C98.9499 48.7995 98.988 48.9586 99.0708 49.0945C99.157 49.2304 99.2747 49.348 99.4238 49.4474C99.573 49.5436 99.7453 49.6281 99.9409 49.701C100.136 49.7706 100.345 49.8303 100.567 49.88L101.482 50.0987C101.926 50.1982 102.334 50.3307 102.705 50.4964C103.076 50.6622 103.398 50.866 103.67 51.108C103.941 51.3499 104.152 51.6349 104.301 51.9631C104.453 52.2912 104.531 52.6674 104.535 53.0916C104.531 53.7147 104.372 54.255 104.057 54.7124C103.746 55.1664 103.295 55.5194 102.705 55.7713C102.118 56.0199 101.411 56.1442 100.582 56.1442C99.7602 56.1442 99.0443 56.0182 98.4345 55.7663C97.8279 55.5144 97.354 55.1416 97.0126 54.6477C96.6745 54.1506 96.4972 53.5357 96.4806 52.8033H98.5637C98.5869 53.1446 98.6847 53.4297 98.8571 53.6584C99.0327 53.8838 99.2664 54.0545 99.5581 54.1705C99.853 54.2831 100.186 54.3395 100.557 54.3395C100.922 54.3395 101.238 54.2865 101.507 54.1804C101.779 54.0743 101.989 53.9268 102.138 53.7379C102.287 53.549 102.362 53.3319 102.362 53.0866C102.362 52.858 102.294 52.6657 102.158 52.5099C102.026 52.3542 101.83 52.2216 101.572 52.1122C101.316 52.0028 101.003 51.9034 100.632 51.8139L99.5233 51.5355C98.6648 51.3267 97.987 51.0002 97.4899 50.5561C96.9927 50.112 96.7458 49.5137 96.7491 48.7614C96.7458 48.1449 96.9099 47.6063 97.2413 47.1456C97.5761 46.6849 98.0351 46.3253 98.6184 46.0668C99.2018 45.8082 99.8646 45.679 100.607 45.679C101.363 45.679 102.022 45.8082 102.586 46.0668C103.153 46.3253 103.593 46.6849 103.908 47.1456C104.223 47.6063 104.385 48.1399 104.395 48.7464H102.332ZM105.983 56V45.8182H108.135V54.2251H112.5V56H105.983ZM115.941 56H113.634L117.149 45.8182H119.923L123.433 56H121.126L118.576 48.1449H118.496L115.941 56ZM115.797 51.9979H121.245V53.6783H115.797V51.9979ZM134.748 56H131.139V45.8182H134.778C135.802 45.8182 136.684 46.022 137.423 46.4297C138.162 46.834 138.73 47.4157 139.128 48.1747C139.529 48.9337 139.73 49.8419 139.73 50.8991C139.73 51.9598 139.529 52.8712 139.128 53.6335C138.73 54.3958 138.159 54.9808 137.413 55.3885C136.671 55.7962 135.782 56 134.748 56ZM133.292 54.1555H134.659C135.295 54.1555 135.83 54.0429 136.265 53.8175C136.702 53.5888 137.03 53.2358 137.249 52.7585C137.471 52.2779 137.582 51.6581 137.582 50.8991C137.582 50.1468 137.471 49.532 137.249 49.0547C137.03 48.5774 136.704 48.2261 136.27 48.0007C135.835 47.7753 135.3 47.6626 134.664 47.6626H133.292V54.1555ZM141.324 56V45.8182H148.185V47.593H143.477V50.0192H147.832V51.794H143.477V54.2251H148.205V56H141.324ZM156.377 56V45.8182H158.53V54.2251H162.895V56H156.377ZM166.335 56H164.028L167.543 45.8182H170.317L173.827 56H171.521L168.97 48.1449H168.891L166.335 56ZM166.191 51.9979H171.64V53.6783H166.191V51.9979ZM96.9616 62.8182H99.0895V69.9176C99.0895 70.5739 98.942 71.1439 98.647 71.6278C98.3554 72.1117 97.9493 72.4846 97.429 72.7464C96.9086 73.0083 96.3037 73.1392 95.6143 73.1392C95.0012 73.1392 94.4444 73.0315 93.9439 72.8161C93.4467 72.5973 93.0523 72.2659 92.7607 71.8217C92.469 71.3743 92.3248 70.8125 92.3281 70.1364H94.4709C94.4775 70.4048 94.5322 70.6352 94.6349 70.8274C94.741 71.0163 94.8852 71.1622 95.0675 71.2649C95.2531 71.3643 95.4718 71.4141 95.7237 71.4141C95.9889 71.4141 96.2126 71.3577 96.3949 71.245C96.5805 71.129 96.7214 70.96 96.8175 70.7379C96.9136 70.5159 96.9616 70.2424 96.9616 69.9176V62.8182ZM107.158 62.8182H109.311V69.4304C109.311 70.1728 109.134 70.8224 108.779 71.3793C108.428 71.9361 107.936 72.3703 107.303 72.6818C106.67 72.9901 105.932 73.1442 105.09 73.1442C104.245 73.1442 103.506 72.9901 102.873 72.6818C102.24 72.3703 101.748 71.9361 101.396 71.3793C101.045 70.8224 100.869 70.1728 100.869 69.4304V62.8182H103.022V69.2464C103.022 69.6342 103.107 69.9789 103.276 70.2805C103.448 70.5821 103.69 70.8191 104.001 70.9915C104.313 71.1638 104.676 71.25 105.09 71.25C105.508 71.25 105.871 71.1638 106.179 70.9915C106.491 70.8191 106.731 70.5821 106.9 70.2805C107.072 69.9789 107.158 69.6342 107.158 69.2464V62.8182ZM112.922 62.8182L115.383 70.554H115.477L117.943 62.8182H120.329L116.819 73H114.045L110.53 62.8182H112.922ZM121.555 73V62.8182H128.416V64.593H123.708V67.0192H128.063V68.794H123.708V71.2251H128.436V73H121.555ZM138.643 62.8182V73H136.784L132.354 66.5916H132.28V73H130.127V62.8182H132.016L136.411 69.2216H136.501V62.8182H138.643ZM140.034 64.593V62.8182H148.396V64.593H145.279V73H143.151V64.593H140.034ZM156.063 62.8182H158.215V69.4304C158.215 70.1728 158.038 70.8224 157.683 71.3793C157.332 71.9361 156.84 72.3703 156.207 72.6818C155.574 72.9901 154.836 73.1442 153.994 73.1442C153.149 73.1442 152.41 72.9901 151.777 72.6818C151.144 72.3703 150.652 71.9361 150.301 71.3793C149.949 70.8224 149.774 70.1728 149.774 69.4304V62.8182H151.926V69.2464C151.926 69.6342 152.011 69.9789 152.18 70.2805C152.352 70.5821 152.594 70.8191 152.906 70.9915C153.217 71.1638 153.58 71.25 153.994 71.25C154.412 71.25 154.775 71.1638 155.083 70.9915C155.395 70.8191 155.635 70.5821 155.804 70.2805C155.977 69.9789 156.063 69.6342 156.063 69.2464V62.8182ZM163.596 73H159.987V62.8182H163.626C164.65 62.8182 165.531 63.022 166.271 63.4297C167.01 63.834 167.578 64.4157 167.976 65.1747C168.377 65.9337 168.577 66.8419 168.577 67.8991C168.577 68.9598 168.377 69.8712 167.976 70.6335C167.578 71.3958 167.006 71.9808 166.261 72.3885C165.518 72.7962 164.63 73 163.596 73ZM162.139 71.1555H163.506C164.143 71.1555 164.678 71.0429 165.112 70.8175C165.55 70.5888 165.878 70.2358 166.097 69.7585C166.319 69.2779 166.43 68.6581 166.43 67.8991C166.43 67.1468 166.319 66.532 166.097 66.0547C165.878 65.5774 165.551 65.2261 165.117 65.0007C164.683 64.7753 164.148 64.6626 163.511 64.6626H162.139V71.1555Z" fill="black"/>
</svg>
